<svg width="30" height="30" viewBox="0 0 30.029 30.0278" fill="none" xmlns="http://www.w3.org/2000/svg">
<path d="M14.8076 5.58646C14.9092 5.58645 14.9914 5.50412 14.9914 5.4026C14.9913 5.30115 14.9091 5.21894 14.8076 5.21894L11.355 5.21882C11.0183 5.21881 10.9284 4.804 11.2446 4.6883C11.2794 4.67556 11.3157 4.66936 11.3528 4.66936L14.808 4.66984C14.9092 4.66985 14.9912 4.58786 14.9913 4.48666C14.9914 4.38536 14.9093 4.30319 14.808 4.30317L14.7379 4.30315C14.4365 4.30308 14.4152 4.03095 14.7165 4.02304C18.6156 3.92076 22.4466 5.90144 24.5338 9.51662C27.4969 14.6494 25.8483 21.1769 20.8758 24.3077C20.8579 24.3194 20.8391 24.3301 20.821 24.3416C20.7638 24.3787 20.7049 24.4137 20.6463 24.4493C20.6141 24.4687 20.5818 24.4885 20.5492 24.5076C20.5363 24.5151 20.5237 24.5234 20.5108 24.5309L20.5099 24.5314L20.4562 24.5613C20.4236 24.5798 20.3901 24.5968 20.3574 24.6149C20.303 24.6446 20.2497 24.6762 20.1948 24.7043C18.6812 25.5144 17.057 25.9316 15.4415 25.9928C15.1923 26.0022 14.9906 25.7989 14.9907 25.5495C14.9908 25.2997 14.7883 25.0971 14.5385 25.0971L10.658 25.0966C10.6515 25.0966 10.645 25.0953 10.6389 25.0927C10.5914 25.0723 10.6055 25.0048 10.6572 25.0048L14.6247 25.0049C14.8268 25.0049 14.9907 24.8411 14.9907 24.639C14.9908 24.4368 14.827 24.2729 14.6248 24.2728L9.11915 24.2721C9.10127 24.2721 9.08378 24.267 9.06874 24.2574C8.99113 24.2074 9.02745 24.0888 9.11975 24.0888L14.6249 24.0891C14.827 24.0891 14.9908 23.9253 14.9909 23.7232C14.991 23.5211 14.8271 23.3571 14.6249 23.3571L7.89074 23.3571C7.8686 23.3571 7.84719 23.3492 7.8305 23.3346C7.76652 23.2788 7.80737 23.1734 7.8923 23.1734L14.6244 23.1734C14.8268 23.1734 14.9909 23.0093 14.9908 22.8069C14.9908 22.6045 14.8267 22.4406 14.6244 22.4405L6.95472 22.4402C6.92828 22.4402 6.90312 22.4291 6.88516 22.4097C6.83018 22.3503 6.87174 22.2565 6.95267 22.2565L14.8899 22.2568C14.9455 22.2568 14.9906 22.2117 14.9905 22.1561C14.9904 22.0785 15.0749 22.0297 15.1436 22.0659C16.3287 22.6902 17.7983 22.7116 19.0441 21.9925C20.9731 20.8785 21.634 18.4123 20.5204 16.483C19.4064 14.554 16.9397 13.8924 15.0104 15.0059C14.8027 15.1259 14.5711 15.2044 14.3312 15.2044L8.6876 15.2043C8.56316 15.2043 8.47277 15.0858 8.50916 14.9668C8.53303 14.8888 8.60558 14.8363 8.68718 14.8363L14.7167 14.8369C14.868 14.8369 14.9907 14.7143 14.9908 14.563C14.9909 14.4115 14.8682 14.2887 14.7167 14.2887L9.0306 14.2888C8.89682 14.2888 8.80501 14.1531 8.85856 14.0305C8.88797 13.9632 8.95499 13.9206 9.02847 13.9206L14.7162 13.9212C14.8678 13.9212 14.9908 13.7982 14.9907 13.6466C14.9907 13.495 14.8678 13.3721 14.7162 13.3721L9.51022 13.3722C9.36569 13.3722 9.27569 13.2177 9.35151 13.0946C9.38572 13.0391 9.44653 13.0055 9.51174 13.0055L14.7163 13.0055C14.868 13.0055 14.9909 12.8825 14.9909 12.7308C14.9909 12.5793 14.868 12.4564 14.7164 12.4564L10.1614 12.4558C10.0052 12.4557 9.91665 12.2784 10.0155 12.1575C10.051 12.1141 10.1045 12.0892 10.1606 12.0892L14.7165 12.0897C14.8682 12.0897 14.9911 11.9668 14.9911 11.8151C14.991 11.6635 14.8681 11.5407 14.7165 11.5407L11.0475 11.5408C10.8751 11.5408 10.7916 11.3349 10.9208 11.2208C10.9556 11.19 11.0009 11.1731 11.0474 11.1731L14.7169 11.1732C14.8682 11.1732 14.9909 11.0505 14.991 10.8992C14.9911 10.7477 14.8683 10.6249 14.7169 10.6249L11.9503 10.6247C11.8671 10.6247 11.8343 10.5185 11.9041 10.4733L12.2658 10.2521C12.3668 10.1938 12.4823 10.1658 12.5989 10.1658L14.808 10.166C14.9092 10.166 14.9912 10.084 14.9913 9.98279C14.9914 9.88149 14.9093 9.79932 14.808 9.79933L14.6836 9.79935C14.3486 9.79939 14.2826 9.41182 14.6098 9.3395C17.146 8.7788 19.8137 9.45609 21.7743 11.1471C22.0499 11.3848 22.4949 11.1141 22.313 10.7988C20.31 7.32966 16.2124 5.82418 12.5397 6.95578C12.3469 7.01519 12.1469 7.05087 11.9452 7.05088L8.16264 7.05107C7.90018 7.05109 7.77632 6.73574 7.97811 6.56791C8.02956 6.52512 8.09494 6.5018 8.16185 6.50181L14.8075 6.50217C14.909 6.50218 14.9913 6.41985 14.9912 6.31833C14.9912 6.21689 14.9089 6.13468 14.8075 6.13467L9.14371 6.13461C8.95165 6.1346 8.87463 5.89294 9.03588 5.7886C9.2517 5.65662 9.49977 5.58678 9.75275 5.58676L14.8076 5.58646ZM14.1264 21.3409C14.1498 21.3409 14.1723 21.3504 14.189 21.3668C14.2465 21.4235 14.2079 21.5243 14.1271 21.5243L6.2077 21.525C6.178 21.525 6.1501 21.5109 6.13263 21.4869C6.08822 21.4259 6.13217 21.3409 6.20768 21.3409L14.1264 21.3409ZM13.3787 20.4253C13.4432 20.4253 13.5016 20.461 13.5338 20.5167C13.5573 20.5575 13.5288 20.6088 13.4818 20.6088L5.67401 20.6083C5.6012 20.6083 5.53363 20.5704 5.49566 20.5083C5.4745 20.4717 5.50242 20.4253 5.54473 20.4253L13.3787 20.4253ZM13.052 19.509C13.0927 19.509 13.1281 19.5364 13.1391 19.5755C13.1554 19.6334 13.1127 19.6918 13.0525 19.6918L5.13012 19.6925C5.09394 19.6925 5.06097 19.6715 5.04529 19.6389C5.01589 19.5778 5.06039 19.5083 5.12822 19.5083L13.052 19.509ZM12.9057 18.5926C12.9545 18.5926 12.9942 18.6315 12.9962 18.6803C12.9984 18.7322 12.9573 18.7763 12.9054 18.7763L8.33896 18.7769C8.29342 18.7769 8.25443 18.7441 8.247 18.6991C8.2377 18.6429 8.28135 18.5924 8.33835 18.5924L12.9057 18.5926ZM12.9311 17.5843C13.017 17.5843 13.0804 17.6643 13.0642 17.7487C13.0519 17.813 12.9963 17.8606 12.9309 17.8606L8.28871 17.8605C8.21429 17.8605 8.15272 17.8023 8.14991 17.7279C8.14695 17.6493 8.21042 17.5846 8.28913 17.5846L12.9311 17.5843ZM13.1486 16.6692C13.2785 16.6692 13.3634 16.8069 13.3128 16.9266C13.2848 16.9928 13.2207 17.0369 13.1489 17.0369L8.34795 17.0365C8.24098 17.0365 8.15546 16.9472 8.16287 16.8404C8.16961 16.7434 8.25105 16.6692 8.34833 16.6692L13.1486 16.6692ZM13.6821 15.7536C13.8301 15.7536 13.9104 15.9338 13.8208 16.0516C13.788 16.0947 13.7376 16.1204 13.6834 16.1204L8.46183 16.1201C8.34679 16.1201 8.2588 16.0173 8.27966 15.9042C8.29581 15.8165 8.37281 15.7538 8.46192 15.7538L13.6821 15.7536ZM7.32902 18.5922C7.36421 18.5922 7.39617 18.6125 7.41118 18.6443C7.44001 18.7054 7.39568 18.7768 7.32813 18.7768L4.75383 18.7765C4.71466 18.7765 4.67962 18.752 4.66581 18.7153C4.64319 18.6553 4.68754 18.5924 4.75167 18.5924L7.32902 18.5922ZM6.89015 17.5849C6.94899 17.5849 7.00093 17.6227 7.01981 17.6785C7.04994 17.7673 6.98478 17.8605 6.89095 17.8605L4.5053 17.8607C4.44189 17.8607 4.38625 17.8181 4.36975 17.7569C4.34614 17.6693 4.41254 17.5846 4.50326 17.5847L6.89015 17.5849ZM6.60463 16.6685C6.69025 16.6685 6.76371 16.7288 6.78176 16.8125C6.80636 16.9266 6.72058 17.0364 6.60385 17.0364L4.36286 17.0369C4.27278 17.0369 4.19535 16.9726 4.18113 16.8837C4.16303 16.7706 4.25138 16.6686 4.36594 16.6686L6.60463 16.6685ZM6.45553 15.7537C6.54832 15.7537 6.62549 15.8245 6.63529 15.9168C6.64672 16.0244 6.56338 16.1197 6.45522 16.1197L4.24621 16.1194C4.15073 16.1194 4.07058 16.0469 4.06245 15.9518C4.05328 15.8446 4.13857 15.7537 4.24615 15.7537L6.45553 15.7537ZM6.40325 14.8365C6.50419 14.8365 6.58533 14.9193 6.58596 15.0203C6.58658 15.1212 6.50572 15.2043 6.40479 15.2043L4.20823 15.2042C4.10623 15.2042 4.02288 15.1223 4.0228 15.0203C4.02271 14.9184 4.10599 14.8367 4.20796 14.8367L6.40325 14.8365ZM6.4543 13.9207C6.56306 13.9207 6.64687 14.0164 6.6354 14.1245C6.62554 14.2174 6.54784 14.2889 6.45443 14.2889L4.24806 14.2884C4.1399 14.2884 4.05381 14.1968 4.06168 14.0889C4.06866 13.9932 4.14909 13.9205 4.2451 13.9205L6.4543 13.9207ZM6.60329 13.0048C6.7197 13.0048 6.80531 13.1139 6.78075 13.2277C6.7627 13.3113 6.68922 13.3719 6.60363 13.3719L4.36271 13.3716C4.24861 13.3716 4.16127 13.27 4.18083 13.1576C4.19622 13.0691 4.27343 13.0051 4.36323 13.0051L6.60329 13.0048ZM6.85365 12.0894C6.97844 12.0894 7.06472 12.2136 7.02444 12.3317C6.99923 12.4056 6.93032 12.4562 6.85222 12.4562L4.5605 12.4557C4.43993 12.4557 4.35154 12.3431 4.38311 12.2268C4.40508 12.1458 4.47882 12.0898 4.56273 12.0898L6.85365 12.0894ZM7.22205 11.1735C7.35543 11.1735 7.44206 11.3147 7.38556 11.4355C7.35583 11.4991 7.29235 11.5402 7.22217 11.5402L4.84621 11.5408C4.71836 11.5408 4.62839 11.4157 4.67204 11.2956C4.69876 11.222 4.76894 11.1734 4.84722 11.1734L7.22205 11.1735ZM7.69499 10.1662C7.8737 10.1662 7.97892 10.3682 7.88336 10.5193C7.84215 10.5844 7.77099 10.6245 7.69393 10.6245L5.29738 10.6249C5.12782 10.625 5.01393 10.4513 5.08635 10.298C5.12473 10.2167 5.20702 10.1656 5.29689 10.1656L7.69499 10.1662ZM8.26532 9.25008C8.49189 9.2501 8.61301 9.52495 8.47049 9.70109C8.42056 9.76279 8.34604 9.79902 8.26667 9.79903L5.8139 9.79935C5.59918 9.79937 5.46263 9.57061 5.5721 9.38589C5.6224 9.30101 5.71435 9.24978 5.81301 9.24979L8.26532 9.25008ZM9.12992 8.33469C9.3719 8.33475 9.48248 8.651 9.30434 8.81478C9.2568 8.85848 9.19527 8.88282 9.1307 8.88282L6.42415 8.8829C6.19676 8.8829 6.06174 8.62962 6.19679 8.44667C6.24941 8.37539 6.33334 8.33405 6.42193 8.33407L9.12992 8.33469ZM10.7285 7.41805C10.8832 7.41806 10.9353 7.63624 10.8013 7.71359C10.7969 7.71616 10.7924 7.71873 10.788 7.7213C10.5242 7.87422 10.2279 7.96665 9.92306 7.96666L7.18983 7.96677C6.94608 7.96678 6.81595 7.68529 6.98259 7.50741C7.03621 7.45017 7.11164 7.41795 7.19007 7.41795L10.7285 7.41805Z" fill="#BCBCBC"/>
</svg>
