<svg width="24" height="22" viewBox="0 0 24 22" fill="none" xmlns="http://www.w3.org/2000/svg">
<path d="M21 0H3C1.346 0 0 1.346 0 3V14C0 15.654 1.346 17 3 17H7.52L11.219 21.625C11.409 21.862 11.697 22 12 22C12.303 22 12.591 21.862 12.781 21.625L16.48 17H21C22.654 17 24 15.654 24 14V3C24 1.346 22.654 0 21 0ZM13 12H7C6.447 12 6 11.552 6 11C6 10.448 6.447 10 7 10H13C13.553 10 14 10.448 14 11C14 11.552 13.553 12 13 12ZM17 7H7C6.447 7 6 6.552 6 6C6 5.448 6.447 5 7 5H17C17.553 5 18 5.448 18 6C18 6.552 17.553 7 17 7Z" fill="#BCBCBC"/>
</svg>
