<svg width="22" height="21" viewBox="0 0 22 21" fill="none" xmlns="http://www.w3.org/2000/svg">
<path d="M15.583 0.00328602C14.7282 0.00804151 13.8829 0.18261 13.0961 0.51685C12.3093 0.851089 11.5968 1.33834 11 1.95029C10.114 1.03434 8.97468 0.40375 7.72805 0.139309C6.48142 -0.125132 5.18423 -0.0113873 4.00265 0.465972C2.82107 0.943331 1.8089 1.76257 1.0958 2.81874C0.382696 3.87491 0.00113826 5.11992 0 6.39429C0 12.2383 9.994 20.4503 10.42 20.7943C10.584 20.9275 10.7888 21.0001 11 21.0001C11.2112 21.0001 11.416 20.9275 11.58 20.7943C12.006 20.4503 22 12.2383 22 6.39429C21.9944 4.69649 21.3158 3.07021 20.1128 1.87212C18.9098 0.674033 17.2808 0.00195299 15.583 0.00328602Z" fill="#BCBCBC"/>
</svg>
