<svg width="61" height="61" viewBox="0 0 61 61" fill="none" xmlns="http://www.w3.org/2000/svg">
<path fill-rule="evenodd" clip-rule="evenodd" d="M29.9511 11.2983C30.1553 11.2983 30.3209 11.1327 30.321 10.9284C30.3211 10.7241 30.1554 10.5584 29.9511 10.5584L22.9513 10.5581C22.2731 10.5581 22.0896 9.71731 22.7262 9.48348C22.7964 9.45767 22.8696 9.44515 22.9445 9.44515L29.9514 9.44534C30.1557 9.44534 30.3213 9.27979 30.3213 9.07553C30.3214 8.87118 30.1558 8.70549 29.9514 8.70549L29.8076 8.7055C29.1969 8.7055 29.1536 8.15415 29.7641 8.13806C37.6512 7.9302 45.4006 11.9366 49.6228 19.2497C55.6657 29.717 52.2299 43.0555 41.9786 49.3259L41.7982 49.4334C41.732 49.4739 41.6651 49.5139 41.598 49.5535L41.4852 49.6198L41.4835 49.6207C41.369 49.6868 41.2541 49.7517 41.1385 49.8143C41.1286 49.8197 41.1184 49.8251 41.1084 49.8305C37.9741 51.5613 34.596 52.4544 31.2361 52.5827C30.7298 52.602 30.3198 52.1887 30.32 51.682C30.3203 51.1742 29.9087 50.7624 29.4009 50.7624L21.5434 50.7623C21.5304 50.7623 21.5176 50.7597 21.5057 50.7545C21.4123 50.714 21.4416 50.5773 21.5434 50.5773L29.58 50.5773C29.9891 50.5773 30.3208 50.2457 30.3209 49.8365C30.321 49.4273 29.9892 49.0954 29.58 49.0954L18.4409 49.0956C18.4045 49.0956 18.3689 49.0853 18.3383 49.0656C18.1803 48.9642 18.253 48.7247 18.4407 48.7247L29.5803 48.7244C29.9895 48.7244 30.3212 48.3928 30.3213 47.9836C30.3213 47.5743 29.9896 47.2425 29.5803 47.2425L15.9583 47.2421C15.9133 47.2421 15.8698 47.2261 15.8357 47.1966C15.7052 47.0838 15.7859 46.8722 15.9585 46.8722L29.5798 46.872C29.989 46.872 30.3207 46.5403 30.3208 46.1312C30.3208 45.7219 29.9891 45.3901 29.5798 45.3901L14.0595 45.3894C14.0066 45.3894 13.9562 45.3672 13.9206 45.3281C13.8117 45.2084 13.8972 45.0186 14.0591 45.0186L30.118 45.0191C30.23 45.0191 30.3208 44.9282 30.3206 44.8161C30.3203 44.6596 30.4906 44.5612 30.6291 44.6341C33.0264 45.8971 35.9993 45.9409 38.5191 44.4863C42.4213 42.2332 43.7582 37.243 41.5056 33.3407C39.2525 29.4383 34.262 28.1005 30.3595 30.3534C29.9417 30.5946 29.4766 30.7531 28.9942 30.7531L17.5689 30.7529C17.3177 30.7529 17.136 30.5139 17.2105 30.2741C17.2594 30.1169 17.4058 30.011 17.5705 30.011L29.7657 30.0113C30.0724 30.0113 30.3211 29.7627 30.3211 29.456C30.3212 29.1492 30.0725 28.9005 29.7657 28.9005L18.2643 28.9003C17.9939 28.9003 17.8104 28.627 17.9212 28.3803C17.982 28.2448 18.1173 28.1586 18.2659 28.1586L29.7652 28.1589C30.0719 28.1589 30.3206 27.9103 30.3206 27.6036C30.3207 27.2968 30.072 27.048 29.7652 27.048L19.2392 27.0478C18.9476 27.0478 18.7645 26.7352 18.9163 26.4862C18.9848 26.3738 19.1075 26.3061 19.2391 26.3061L29.7655 26.306C30.0723 26.306 30.3209 26.0574 30.321 25.7507C30.3211 25.4439 30.0724 25.1951 29.7656 25.1951L20.5552 25.1947C20.2389 25.1947 20.0602 24.8359 20.2609 24.5914C20.3329 24.5036 20.4411 24.4533 20.5547 24.4533L29.7652 24.4531C30.0723 24.4531 30.3211 24.2042 30.3211 23.8971C30.321 23.5902 30.0722 23.3414 29.7652 23.3414L22.3445 23.3413C21.9978 23.3412 21.8291 22.9262 22.0887 22.6964C22.1587 22.6344 22.2497 22.6004 22.3432 22.6004L29.7654 22.6007C30.0721 22.6007 30.3208 22.3521 30.3208 22.0453C30.3209 21.7385 30.0722 21.4898 29.7654 21.4897L25.0277 21.4893C24.5974 21.4893 24.4369 20.9538 24.8095 20.7386C25.0176 20.6185 25.2561 20.5615 25.4964 20.5615L29.951 20.5618C30.1553 20.5618 30.3209 20.3963 30.3209 20.192C30.321 19.9876 30.1554 19.822 29.951 19.8219L29.6992 19.8219C29.022 19.8219 28.8888 19.0383 29.55 18.8921C34.6793 17.7582 40.0737 19.1288 44.039 22.549C44.5991 23.0318 45.4996 22.4839 45.1303 21.8434C41.078 14.8246 32.7877 11.7784 25.3579 14.0706C24.9673 14.1911 24.5621 14.2635 24.1534 14.2635L16.5068 14.2631C15.9751 14.2631 15.7245 13.6246 16.1332 13.2847C16.2375 13.198 16.3699 13.1508 16.5055 13.1508L29.9507 13.1512C30.155 13.1512 30.3206 12.9856 30.3206 12.7813C30.3207 12.577 30.1551 12.4113 29.9507 12.4113L19.1069 12.4111C18.523 12.4111 18.2961 11.6895 18.7948 11.3859C18.8881 11.3291 18.9966 11.2989 19.1057 11.2989L29.9511 11.2983ZM28.5696 43.1663C28.6168 43.1663 28.6622 43.1854 28.6959 43.2186C28.8121 43.3331 28.7339 43.5367 28.5708 43.5367L12.552 43.5367C12.4923 43.5367 12.4361 43.5083 12.401 43.46C12.3116 43.337 12.4002 43.1659 12.5522 43.1659L28.5696 43.1663ZM27.0575 41.3135C27.1887 41.3135 27.307 41.3867 27.3726 41.5003C27.4197 41.5818 27.3634 41.6839 27.2694 41.6839L11.4692 41.6836C11.324 41.6836 11.1878 41.6079 11.1151 41.4821C11.0719 41.4073 11.1271 41.3137 11.2135 41.3137L27.0575 41.3135ZM26.3979 39.4609C26.4803 39.4608 26.5521 39.5164 26.5742 39.5958C26.607 39.7133 26.5201 39.8316 26.3982 39.8316L10.3715 39.8319C10.2989 39.8319 10.2327 39.79 10.2018 39.7243C10.1439 39.6012 10.2342 39.4612 10.3703 39.4612L26.3979 39.4609ZM26.1031 37.6081C26.2015 37.6081 26.2817 37.6867 26.286 37.785C26.2905 37.8897 26.2078 37.9786 26.103 37.9786L16.8662 37.9792C16.7746 37.9792 16.6963 37.9132 16.6811 37.8229C16.6621 37.7099 16.7497 37.6084 16.8643 37.6084L26.1031 37.6081ZM26.1551 35.5692C26.328 35.5692 26.4556 35.7302 26.4233 35.9C26.3986 36.0295 26.2868 36.1253 26.155 36.1253L16.7659 36.1253C16.6161 36.1253 16.492 36.0081 16.4859 35.8584C16.4796 35.7 16.6073 35.5697 16.7658 35.5697L26.1551 35.5692ZM26.5961 33.7164C26.8585 33.7164 27.0296 33.9945 26.9271 34.236C26.8705 34.3696 26.7411 34.4587 26.5961 34.4587L16.8824 34.4583C16.6663 34.4583 16.4935 34.2778 16.5089 34.0623C16.5228 33.8662 16.6874 33.7163 16.8839 33.7163L26.5961 33.7164ZM27.6736 31.8639C27.9728 31.8639 28.1353 32.2284 27.9543 32.4667C27.8881 32.5538 27.786 32.6058 27.6766 32.6058L17.115 32.6056C16.8819 32.6056 16.7038 32.3974 16.7464 32.1683C16.7794 31.9908 16.9354 31.8639 17.1159 31.8639L27.6736 31.8639ZM14.8223 37.6081C14.8932 37.6081 14.9575 37.6489 14.9881 37.7128C15.047 37.8354 14.9585 37.9788 14.8225 37.9788L9.60804 37.9792C9.52949 37.9792 9.45918 37.9301 9.43292 37.856C9.38994 37.7349 9.48053 37.6082 9.60911 37.6082L14.8223 37.6081ZM13.9362 35.5698C14.0546 35.5698 14.1591 35.646 14.1965 35.7583C14.2562 35.9374 14.1244 36.1251 13.9356 36.1251L9.10699 36.1256C8.97948 36.1256 8.86759 36.0399 8.83568 35.9164C8.79002 35.7398 8.92451 35.5693 9.10695 35.5694L13.9362 35.5698ZM13.3543 33.7166C13.527 33.7166 13.6752 33.8381 13.7123 34.0068C13.7628 34.2368 13.5901 34.4583 13.3546 34.4583L8.82458 34.4583C8.64288 34.4583 8.48652 34.3286 8.45516 34.1497C8.41526 33.922 8.59217 33.7165 8.82329 33.7165L13.3543 33.7166ZM13.0547 31.8643C13.2427 31.8643 13.3991 32.0077 13.4189 32.1947C13.442 32.4126 13.2732 32.6059 13.054 32.6058L8.5845 32.6057C8.39081 32.6057 8.22829 32.4588 8.2124 32.2658C8.19449 32.0483 8.36769 31.8639 8.58592 31.8639L13.0547 31.8643ZM12.9536 30.0116C13.157 30.0116 13.3204 30.1787 13.3207 30.3822C13.321 30.5857 13.1577 30.7532 12.9542 30.7532L8.50757 30.7527C8.30165 30.7527 8.13344 30.5874 8.13346 30.3815C8.13348 30.1756 8.30172 30.0107 8.50762 30.0107L12.9536 30.0116ZM13.0541 28.1585C13.2733 28.1585 13.442 28.3512 13.4185 28.5691C13.3984 28.7561 13.2418 28.9002 13.0537 28.9002L8.58574 28.9005C8.36749 28.9005 8.1945 28.7158 8.21306 28.4983C8.22954 28.3053 8.39209 28.1587 8.58579 28.1587L13.0541 28.1585ZM13.3515 26.3054C13.5869 26.3054 13.7599 26.5261 13.7101 26.7561C13.6735 26.9253 13.5249 27.0477 13.3518 27.0477L8.82442 27.0477C8.5936 27.0477 8.41657 26.8421 8.45526 26.6146C8.48572 26.4355 8.64186 26.3061 8.82352 26.3061L13.3515 26.3054ZM13.8624 24.453C14.1144 24.453 14.2893 24.7041 14.2091 24.943C14.1589 25.0924 14.0197 25.1946 13.862 25.1946L9.22421 25.1946C8.98021 25.1947 8.80052 24.9667 8.86293 24.7308C8.90636 24.5666 9.05558 24.4533 9.22538 24.4533L13.8624 24.453ZM14.6047 22.6008C14.874 22.6008 15.0487 22.8858 14.9344 23.1297C14.8743 23.258 14.7461 23.341 14.6044 23.3411L9.79859 23.3414C9.5414 23.3414 9.35935 23.0894 9.44557 22.8471C9.49837 22.6988 9.63957 22.6009 9.79706 22.6009L14.6047 22.6008ZM15.5626 20.5614C15.924 20.5614 16.138 20.9707 15.9455 21.2765C15.8626 21.4084 15.7187 21.4895 15.5629 21.4895L10.7091 21.4894C10.3666 21.4894 10.1369 21.1387 10.2836 20.8292C10.3614 20.6652 10.5275 20.5619 10.709 20.5619L15.5626 20.5614ZM16.7145 18.7087C17.1744 18.7087 17.419 19.2656 17.1293 19.6227C17.0278 19.7478 16.8765 19.8213 16.7154 19.8214L11.7543 19.8216C11.3194 19.8216 11.0434 19.3585 11.2657 18.9847C11.3678 18.8129 11.554 18.7091 11.7538 18.7091L16.7145 18.7087ZM18.46 16.8567C18.9507 16.8567 19.1752 17.4984 18.8141 17.8306C18.7177 17.9193 18.593 17.9686 18.462 17.9686L12.9913 17.9687C12.529 17.9687 12.2572 17.4556 12.5333 17.0849C12.6409 16.9404 12.8114 16.8563 12.9915 16.8563L18.46 16.8567ZM21.6969 15.0035C22.0089 15.0035 22.1167 15.4486 21.8465 15.6046C21.8376 15.6097 21.8287 15.6149 21.8198 15.62C21.2857 15.9296 20.6856 16.1165 20.0682 16.1165L14.5392 16.1162C14.0451 16.1162 13.781 15.5454 14.1187 15.1847C14.2274 15.0686 14.3803 15.0033 14.5393 15.0033L21.6969 15.0035Z" fill="#E6E6E6"/>
</svg>
