<svg width="200" height="200" viewBox="0 0 200 200" fill="none" xmlns="http://www.w3.org/2000/svg">
<rect width="200" height="200" rx="48" fill="#050505"/>
<path d="M98.7633 43.4098C99.3708 43.4098 99.8633 42.917 99.8633 42.3093C99.8632 41.7016 99.3707 41.209 98.7632 41.209L77.982 41.2087C75.9722 41.2087 75.4282 38.7156 77.3148 38.0223C77.523 37.9458 77.74 37.9086 77.9618 37.9086L98.7633 37.9087C99.3708 37.9087 99.8633 37.416 99.8633 36.8082C99.8632 36.2005 99.3708 35.7079 98.7633 35.7079L98.3381 35.7079C96.5247 35.7078 96.3963 34.0703 98.2091 34.0227C121.617 33.4077 144.617 45.3045 157.148 67.017C175.37 98.5904 164.557 138.963 132.994 157.192L132.253 157.614C122.849 162.888 112.692 165.61 102.589 165.998C101.083 166.056 99.863 164.826 99.8631 163.318C99.8631 161.807 98.6386 160.582 97.1281 160.582L73.784 160.582C73.7456 160.582 73.7076 160.574 73.6724 160.559C73.3955 160.438 73.4827 160.033 73.7845 160.033L97.6632 160.033C98.8783 160.033 99.8633 159.047 99.8632 157.832C99.8631 156.616 98.8782 155.631 97.6632 155.631L64.5808 155.631C64.4728 155.631 64.3673 155.6 64.2764 155.542C63.8082 155.241 64.0241 154.53 64.5805 154.53L97.6634 154.531C98.8782 154.531 99.863 153.545 99.863 152.33C99.863 151.115 98.8783 150.13 97.6635 150.13L57.2191 150.13C57.0851 150.13 56.9556 150.082 56.8542 149.994C56.4654 149.658 56.7052 149.029 57.2188 149.029L97.6635 149.03C98.8782 149.03 99.863 148.044 99.863 146.829C99.863 145.614 98.8783 144.629 97.6635 144.629L51.5821 144.629C51.4255 144.629 51.2762 144.563 51.1709 144.447C50.8487 144.092 51.1027 143.529 51.582 143.529L99.2629 143.529C99.5942 143.529 99.8628 143.26 99.8626 142.928C99.8623 142.465 100.366 142.174 100.776 142.39C107.891 146.14 116.716 146.266 124.195 141.946C135.778 135.256 139.747 120.44 133.06 108.853C126.372 97.2659 111.561 93.2955 99.9777 99.9852C98.7382 100.701 97.3573 101.17 95.9261 101.17L62.0123 101.17C61.2684 101.17 60.7289 100.462 60.9481 99.7508C61.0918 99.2846 61.5254 98.9708 62.0132 98.9708L98.2132 98.9706C99.1246 98.9706 99.8633 98.2316 99.8633 97.3199C99.8632 96.4084 99.1245 95.6695 98.2133 95.6695L64.0751 95.6691C63.2741 95.6691 62.7293 94.8586 63.0557 94.1268C63.2349 93.725 63.6359 93.4696 64.0757 93.4696L98.2133 93.4696C99.1246 93.4696 99.8634 92.7305 99.8633 91.8189C99.8632 90.9073 99.1245 90.1684 98.2133 90.1684L66.9657 90.1681C66.101 90.1681 65.5578 89.2404 66.0077 88.5016C66.2107 88.1684 66.5746 87.9676 66.9647 87.9676L98.2135 87.9677C99.1245 87.9677 99.863 87.229 99.863 86.3177C99.8631 85.4063 99.1246 84.6674 98.2135 84.6674L70.8743 84.6678C69.9355 84.6678 69.4052 83.6027 70.001 82.8769C70.2148 82.6163 70.5359 82.4669 70.8729 82.4669L98.2135 82.4667C99.1245 82.4666 99.863 81.7279 99.8631 80.8166C99.8631 79.9053 99.1246 79.1664 98.2135 79.1664L76.1819 79.1663C75.151 79.1663 74.6516 77.9343 75.4242 77.2515C75.6326 77.0673 75.9031 76.966 76.1813 76.966L98.2136 76.9656C99.1245 76.9656 99.863 76.2269 99.8631 75.3156C99.8632 74.4042 99.1246 73.6654 98.2136 73.6654L84.1498 73.6652C82.8756 73.6652 82.3989 72.0763 83.5024 71.439C84.1096 71.0883 84.8014 70.9147 85.5025 70.9147L98.7631 70.9149C99.3707 70.9149 99.8632 70.4221 99.8631 69.8144C99.8631 69.2067 99.3706 68.7141 98.7631 68.7141L98.0204 68.7141C96.0129 68.714 95.6182 66.3904 97.5784 65.957C112.801 62.5916 128.81 66.6594 140.579 76.8126C142.24 78.246 144.91 76.6191 143.814 74.7185C131.787 53.8816 107.188 44.8389 85.1375 51.639C83.9785 51.9964 82.7764 52.2111 81.5635 52.2111L58.8494 52.211C57.273 52.211 56.5296 50.317 57.7416 49.3086C58.0507 49.0514 58.4434 48.9113 58.8454 48.9113L98.7632 48.9108C99.3708 48.9108 99.8633 48.4181 99.8632 47.8103C99.8632 47.2026 99.3707 46.71 98.7632 46.71L66.5633 46.7096C64.8342 46.7096 64.1603 44.5685 65.6369 43.6686C65.913 43.5004 66.2343 43.4108 66.5576 43.4108L98.7633 43.4098Z" fill="url(#paint0_radial_18_1866)"/>
<path d="M94.6686 138.027C94.8083 138.027 94.9426 138.084 95.0418 138.182C95.3841 138.522 95.1494 139.128 94.6671 139.128L47.1118 139.128C46.9343 139.128 46.7676 139.043 46.663 138.9C46.3973 138.535 46.6594 138.028 47.1106 138.028L94.6686 138.027Z" fill="url(#paint1_radial_18_1866)"/>
<path d="M90.1719 132.526C90.5618 132.526 90.9185 132.741 91.1134 133.079C91.2529 133.32 91.0812 133.626 90.8024 133.626L43.8925 133.627C43.4638 133.627 43.0656 133.401 42.8512 133.03C42.722 132.806 42.8849 132.527 43.1435 132.527L90.1719 132.526Z" fill="url(#paint2_radial_18_1866)"/>
<path d="M88.2183 127.025C88.463 127.025 88.6759 127.19 88.7413 127.426C88.8379 127.774 88.5799 128.126 88.2182 128.126L40.6387 128.126C40.4235 128.126 40.2273 128.001 40.136 127.806C39.9648 127.441 40.2328 127.026 40.6362 127.026L88.2183 127.025Z" fill="url(#paint3_radial_18_1866)"/>
<path d="M87.346 121.525C87.6382 121.525 87.8763 121.758 87.8892 122.05C87.903 122.361 87.6574 122.625 87.3461 122.625L59.9163 122.625C59.6449 122.625 59.4128 122.429 59.3703 122.161C59.3173 121.825 59.5782 121.524 59.9178 121.524L87.346 121.525Z" fill="url(#paint4_radial_18_1866)"/>
<path d="M87.4985 115.474C88.0114 115.474 88.3898 115.951 88.2934 116.455C88.2199 116.839 87.8881 117.124 87.4972 117.124L59.6216 117.124C59.1766 117.124 58.8083 116.776 58.7907 116.331C58.7721 115.86 59.1514 115.474 59.622 115.474L87.4985 115.474Z" fill="url(#paint5_radial_18_1866)"/>
<path d="M88.8074 109.972C89.5845 109.972 90.0921 110.797 89.7897 111.513C89.6225 111.908 89.2393 112.172 88.8097 112.172L59.9731 112.173C59.3324 112.173 58.8203 111.638 58.8649 110.998C58.9055 110.417 59.3932 109.973 59.9757 109.973L88.8074 109.972Z" fill="url(#paint6_radial_18_1866)"/>
<path d="M92.0065 104.472C92.8949 104.472 93.3746 105.552 92.8359 106.258C92.6389 106.517 92.3361 106.671 92.0113 106.671L60.6653 106.672C59.9742 106.672 59.4457 106.054 59.5712 105.374C59.6684 104.848 60.1309 104.471 60.6661 104.471L92.0065 104.472Z" fill="url(#paint7_radial_18_1866)"/>
<path d="M53.8568 121.524C54.0671 121.524 54.258 121.645 54.3489 121.835C54.5235 122.199 54.2609 122.625 53.8573 122.625L38.3762 122.624C38.1431 122.624 37.9345 122.479 37.8556 122.259C37.7264 121.9 37.9941 121.524 38.3755 121.524L53.8568 121.524Z" fill="url(#paint8_radial_18_1866)"/>
<path d="M51.2255 115.473C51.577 115.473 51.8873 115.7 51.9981 116.033C52.1748 116.565 51.7832 117.123 51.2227 117.123L36.8875 117.123C36.5094 117.123 36.1777 116.869 36.0829 116.503C35.9472 115.979 36.3457 115.473 36.8867 115.473L51.2255 115.473Z" fill="url(#paint9_radial_18_1866)"/>
<path d="M49.4995 109.972C50.0118 109.972 50.4514 110.333 50.5616 110.833C50.7118 111.516 50.1998 112.173 49.5013 112.173L36.0476 112.173C35.509 112.173 35.0456 111.788 34.9544 111.257C34.8383 110.582 35.3635 109.972 36.0486 109.972L49.4995 109.972Z" fill="url(#paint10_radial_18_1866)"/>
<path d="M48.6085 104.471C49.1662 104.471 49.6301 104.897 49.6898 105.452C49.7593 106.098 49.2588 106.672 48.6087 106.672L35.3406 106.671C34.7665 106.671 34.2846 106.236 34.2363 105.663C34.1819 105.019 34.6948 104.472 35.3416 104.472L48.6085 104.471Z" fill="url(#paint11_radial_18_1866)"/>
<path d="M48.312 98.9703C48.9155 98.9703 49.3999 99.4661 49.4004 100.07C49.4009 100.673 48.9166 101.171 48.3131 101.171L35.1086 101.171C34.4982 101.171 33.9995 100.681 34 100.07C34.0005 99.4593 34.4991 98.9704 35.1094 98.9704L48.312 98.9703Z" fill="url(#paint12_radial_18_1866)"/>
<path d="M48.6085 93.4694C49.2583 93.4694 49.7588 94.0408 49.6894 94.6871C49.6299 95.242 49.1657 95.6692 48.6078 95.6692L35.3433 95.6686C34.6965 95.6686 34.1839 95.1207 34.2387 94.476C34.2875 93.9038 34.7692 93.4693 35.3433 93.4693L48.6085 93.4694Z" fill="url(#paint13_radial_18_1866)"/>
<path d="M49.494 87.9676C50.1916 87.9676 50.7045 88.6218 50.5571 89.3039C50.4487 89.8055 50.0083 90.1683 49.4954 90.1683L36.0498 90.1681C35.3651 90.1681 34.8403 89.558 34.9559 88.8829C35.0469 88.3516 35.5102 87.9677 36.0491 87.9677L49.494 87.9676Z" fill="url(#paint14_radial_18_1866)"/>
<path d="M51.0082 82.4661C51.756 82.4661 52.2753 83.2116 52.0372 83.9207C51.8882 84.3644 51.4753 84.6675 51.0074 84.6675L37.24 84.6668C36.5164 84.6667 35.983 83.9902 36.1668 83.2902C36.2947 82.8031 36.7372 82.467 37.2407 82.4669L51.0082 82.4661Z" fill="url(#paint15_radial_18_1866)"/>
<path d="M53.21 76.9657C54.01 76.9657 54.5298 77.8131 54.1911 78.5381C54.0128 78.9196 53.632 79.1664 53.211 79.1664L38.9442 79.1663C38.1796 79.1663 37.6398 78.4173 37.8981 77.6974C38.0562 77.2566 38.476 76.9656 38.9442 76.9656L53.21 76.9657Z" fill="url(#paint16_radial_18_1866)"/>
<path d="M56.0583 70.9147C57.1292 70.9147 57.7626 72.1277 57.1916 73.034C56.9455 73.4247 56.5191 73.6652 56.0575 73.6652L41.6452 73.6654C40.6299 73.6655 39.9489 72.6254 40.3833 71.7075C40.6136 71.221 41.1061 70.9148 41.6442 70.9148L56.0583 70.9147Z" fill="url(#paint17_radial_18_1866)"/>
<path d="M59.4778 65.4138C60.8412 65.4139 61.5668 67.0658 60.7078 68.1249C60.4068 68.4959 59.9585 68.714 59.4809 68.714L44.7475 68.714C43.4576 68.714 42.6393 67.3403 43.2983 66.2311C43.6012 65.7214 44.1535 65.4135 44.7462 65.4135L59.4778 65.4138Z" fill="url(#paint18_radial_18_1866)"/>
<path d="M64.6546 59.9131C66.1105 59.9132 66.7767 61.8178 65.7051 62.8038C65.4191 63.0669 65.0489 63.2134 64.6604 63.2134L48.417 63.2131C47.0463 63.2131 46.2394 61.6907 47.0576 60.5905C47.3764 60.1619 47.882 59.9124 48.416 59.9124L64.6546 59.9131Z" fill="url(#paint19_radial_18_1866)"/>
<path d="M74.2611 54.4117C75.1876 54.4117 75.5061 55.7306 74.7038 56.194C74.6798 56.2078 74.6559 56.2217 74.632 56.2355C73.047 57.1546 71.2677 57.7117 69.4357 57.7117L53.0118 57.7117C51.5479 57.7117 50.7644 56.0189 51.7644 54.9493C52.0863 54.6051 52.5394 54.4115 53.0106 54.4115L74.2611 54.4117Z" fill="url(#paint20_radial_18_1866)"/>
<defs>
<radialGradient id="paint0_radial_18_1866" cx="0" cy="0" r="1" gradientTransform="matrix(-52.1502 126.094 -126.066 -52.156 122.518 54.614)" gradientUnits="userSpaceOnUse">
<stop stop-color="white"/>
<stop offset="1" stop-color="white" stop-opacity="0.6"/>
</radialGradient>
<radialGradient id="paint1_radial_18_1866" cx="0" cy="0" r="1" gradientTransform="matrix(-52.1502 126.094 -126.066 -52.156 122.518 54.614)" gradientUnits="userSpaceOnUse">
<stop stop-color="white"/>
<stop offset="1" stop-color="white" stop-opacity="0.6"/>
</radialGradient>
<radialGradient id="paint2_radial_18_1866" cx="0" cy="0" r="1" gradientTransform="matrix(-52.1502 126.094 -126.066 -52.156 122.518 54.614)" gradientUnits="userSpaceOnUse">
<stop stop-color="white"/>
<stop offset="1" stop-color="white" stop-opacity="0.6"/>
</radialGradient>
<radialGradient id="paint3_radial_18_1866" cx="0" cy="0" r="1" gradientTransform="matrix(-52.1502 126.094 -126.066 -52.156 122.518 54.614)" gradientUnits="userSpaceOnUse">
<stop stop-color="white"/>
<stop offset="1" stop-color="white" stop-opacity="0.6"/>
</radialGradient>
<radialGradient id="paint4_radial_18_1866" cx="0" cy="0" r="1" gradientTransform="matrix(-52.1502 126.094 -126.066 -52.156 122.518 54.614)" gradientUnits="userSpaceOnUse">
<stop stop-color="white"/>
<stop offset="1" stop-color="white" stop-opacity="0.6"/>
</radialGradient>
<radialGradient id="paint5_radial_18_1866" cx="0" cy="0" r="1" gradientTransform="matrix(-52.1502 126.094 -126.066 -52.156 122.518 54.614)" gradientUnits="userSpaceOnUse">
<stop stop-color="white"/>
<stop offset="1" stop-color="white" stop-opacity="0.6"/>
</radialGradient>
<radialGradient id="paint6_radial_18_1866" cx="0" cy="0" r="1" gradientTransform="matrix(-52.1502 126.094 -126.066 -52.156 122.518 54.614)" gradientUnits="userSpaceOnUse">
<stop stop-color="white"/>
<stop offset="1" stop-color="white" stop-opacity="0.6"/>
</radialGradient>
<radialGradient id="paint7_radial_18_1866" cx="0" cy="0" r="1" gradientTransform="matrix(-52.1502 126.094 -126.066 -52.156 122.518 54.614)" gradientUnits="userSpaceOnUse">
<stop stop-color="white"/>
<stop offset="1" stop-color="white" stop-opacity="0.6"/>
</radialGradient>
<radialGradient id="paint8_radial_18_1866" cx="0" cy="0" r="1" gradientTransform="matrix(-52.1502 126.094 -126.066 -52.156 122.518 54.614)" gradientUnits="userSpaceOnUse">
<stop stop-color="white"/>
<stop offset="1" stop-color="white" stop-opacity="0.6"/>
</radialGradient>
<radialGradient id="paint9_radial_18_1866" cx="0" cy="0" r="1" gradientTransform="matrix(-52.1502 126.094 -126.066 -52.156 122.518 54.614)" gradientUnits="userSpaceOnUse">
<stop stop-color="white"/>
<stop offset="1" stop-color="white" stop-opacity="0.6"/>
</radialGradient>
<radialGradient id="paint10_radial_18_1866" cx="0" cy="0" r="1" gradientTransform="matrix(-52.1502 126.094 -126.066 -52.156 122.518 54.614)" gradientUnits="userSpaceOnUse">
<stop stop-color="white"/>
<stop offset="1" stop-color="white" stop-opacity="0.6"/>
</radialGradient>
<radialGradient id="paint11_radial_18_1866" cx="0" cy="0" r="1" gradientTransform="matrix(-52.1502 126.094 -126.066 -52.156 122.518 54.614)" gradientUnits="userSpaceOnUse">
<stop stop-color="white"/>
<stop offset="1" stop-color="white" stop-opacity="0.6"/>
</radialGradient>
<radialGradient id="paint12_radial_18_1866" cx="0" cy="0" r="1" gradientTransform="matrix(-52.1502 126.094 -126.066 -52.156 122.518 54.614)" gradientUnits="userSpaceOnUse">
<stop stop-color="white"/>
<stop offset="1" stop-color="white" stop-opacity="0.6"/>
</radialGradient>
<radialGradient id="paint13_radial_18_1866" cx="0" cy="0" r="1" gradientTransform="matrix(-52.1502 126.094 -126.066 -52.156 122.518 54.614)" gradientUnits="userSpaceOnUse">
<stop stop-color="white"/>
<stop offset="1" stop-color="white" stop-opacity="0.6"/>
</radialGradient>
<radialGradient id="paint14_radial_18_1866" cx="0" cy="0" r="1" gradientTransform="matrix(-52.1502 126.094 -126.066 -52.156 122.518 54.614)" gradientUnits="userSpaceOnUse">
<stop stop-color="white"/>
<stop offset="1" stop-color="white" stop-opacity="0.6"/>
</radialGradient>
<radialGradient id="paint15_radial_18_1866" cx="0" cy="0" r="1" gradientTransform="matrix(-52.1502 126.094 -126.066 -52.156 122.518 54.614)" gradientUnits="userSpaceOnUse">
<stop stop-color="white"/>
<stop offset="1" stop-color="white" stop-opacity="0.6"/>
</radialGradient>
<radialGradient id="paint16_radial_18_1866" cx="0" cy="0" r="1" gradientTransform="matrix(-52.1502 126.094 -126.066 -52.156 122.518 54.614)" gradientUnits="userSpaceOnUse">
<stop stop-color="white"/>
<stop offset="1" stop-color="white" stop-opacity="0.6"/>
</radialGradient>
<radialGradient id="paint17_radial_18_1866" cx="0" cy="0" r="1" gradientTransform="matrix(-52.1502 126.094 -126.066 -52.156 122.518 54.614)" gradientUnits="userSpaceOnUse">
<stop stop-color="white"/>
<stop offset="1" stop-color="white" stop-opacity="0.6"/>
</radialGradient>
<radialGradient id="paint18_radial_18_1866" cx="0" cy="0" r="1" gradientTransform="matrix(-52.1502 126.094 -126.066 -52.156 122.518 54.614)" gradientUnits="userSpaceOnUse">
<stop stop-color="white"/>
<stop offset="1" stop-color="white" stop-opacity="0.6"/>
</radialGradient>
<radialGradient id="paint19_radial_18_1866" cx="0" cy="0" r="1" gradientTransform="matrix(-52.1502 126.094 -126.066 -52.156 122.518 54.614)" gradientUnits="userSpaceOnUse">
<stop stop-color="white"/>
<stop offset="1" stop-color="white" stop-opacity="0.6"/>
</radialGradient>
<radialGradient id="paint20_radial_18_1866" cx="0" cy="0" r="1" gradientTransform="matrix(-52.1502 126.094 -126.066 -52.156 122.518 54.614)" gradientUnits="userSpaceOnUse">
<stop stop-color="white"/>
<stop offset="1" stop-color="white" stop-opacity="0.6"/>
</radialGradient>
</defs>
</svg>
