<svg width="200" height="200" viewBox="0 0 200 200" fill="none" xmlns="http://www.w3.org/2000/svg">
<path d="M99.0014 48.5454C99.5538 48.5454 100.002 48.0975 100.002 47.5451C100.001 46.9928 99.5537 46.545 99.0014 46.545L80.1063 46.5448C78.2789 46.5447 77.7843 44.2787 79.4996 43.6486C79.689 43.579 79.8862 43.5453 80.0879 43.5453L99.0014 43.5454C99.5538 43.5454 100.002 43.0975 100.002 42.5451C100.002 41.9928 99.5538 41.545 99.0014 41.545L98.6148 41.545C96.966 41.5449 96.8492 40.0566 98.4975 40.0133C119.781 39.4544 140.693 50.2675 152.087 70.0023C168.655 98.6998 158.823 135.395 130.126 151.964L129.452 152.347C120.901 157.141 111.666 159.615 102.48 159.968C101.11 160.02 100.001 158.903 100.001 157.532C100.001 156.159 98.8881 155.045 97.5146 155.045L76.2893 155.045C76.2544 155.045 76.2198 155.038 76.1878 155.024C75.9361 154.914 76.0153 154.545 76.2898 154.545L98.0012 154.545C99.106 154.545 100.002 153.65 100.002 152.545C100.001 151.44 99.1059 150.545 98.0012 150.545L67.9214 150.545C67.8233 150.545 67.7273 150.517 67.6447 150.464C67.2189 150.19 67.4152 149.544 67.9212 149.544L98.0014 149.545C99.1059 149.545 100.001 148.649 100.001 147.545C100.001 146.44 99.1059 145.545 98.0014 145.545L61.2279 145.545C61.106 145.545 60.9883 145.501 60.8961 145.421C60.5426 145.116 60.7606 144.544 61.2276 144.544L98.0014 144.545C99.1059 144.545 100.001 143.649 100.001 142.545C100.001 141.44 99.106 140.545 98.0014 140.545L56.1025 140.545C55.9601 140.545 55.8243 140.485 55.7286 140.38C55.4357 140.057 55.6666 139.545 56.1024 139.545L99.4556 139.545C99.7569 139.545 100.001 139.3 100.001 138.999C100.001 138.578 100.459 138.314 100.831 138.51C107.301 141.919 115.325 142.033 122.125 138.107C132.657 132.026 136.265 118.559 130.185 108.027C124.104 97.496 110.637 93.8872 100.106 99.9676C98.9786 100.618 97.723 101.045 96.4217 101.045L65.586 101.045C64.9096 101.045 64.4192 100.401 64.6184 99.7545C64.7491 99.3307 65.1433 99.0456 65.5868 99.0456L98.5013 99.0454C99.3299 99.0454 100.002 98.3737 100.002 97.545C100.001 96.7165 99.3298 96.0449 98.5013 96.0449L67.4616 96.0446C66.7333 96.0446 66.238 95.3079 66.5348 94.6428C66.6977 94.2776 67.0623 94.0455 67.4622 94.0455L98.5013 94.0455C99.3299 94.0455 100.002 93.3737 100.002 92.5451C100.001 91.7166 99.3298 91.045 98.5013 91.045L70.0899 91.0446C69.3036 91.0446 68.8097 90.2014 69.2188 89.53C69.4034 89.2271 69.7342 89.0446 70.0889 89.0446L98.5015 89.0447C99.3298 89.0447 100.001 88.3732 100.001 87.545C100.001 86.7166 99.3299 86.045 98.5015 86.045L73.6437 86.0454C72.7901 86.0454 72.308 85.0773 72.8497 84.4176C73.0441 84.1808 73.336 84.0449 73.6425 84.0449L98.5015 84.0447C99.3298 84.0447 100.001 83.3733 100.001 82.545C100.001 81.7166 99.3299 81.0451 98.5015 81.0451L78.4696 81.045C77.5322 81.045 77.0782 79.9252 77.7806 79.3046C77.9702 79.1371 78.2161 79.0451 78.469 79.0451L98.5016 79.0448C99.3299 79.0448 100.001 78.3733 100.001 77.545C100.001 76.7167 99.3299 76.0451 98.5016 76.0451L85.7143 76.0449C84.5557 76.0449 84.1223 74.6008 85.1256 74.0215C85.6777 73.7028 86.3067 73.545 86.9442 73.545L99.0012 73.5451C99.5537 73.5451 100.001 73.0973 100.001 72.5449C100.001 71.9925 99.5536 71.5448 99.0013 71.5448L98.3259 71.5448C96.5007 71.5447 96.1418 69.4328 97.9241 69.0389C111.765 65.98 126.321 69.6773 137.021 78.9057C138.532 80.2085 140.96 78.7298 139.963 77.0023C129.028 58.0634 106.661 49.8443 86.6124 56.025C85.5585 56.3498 84.4655 56.545 83.3627 56.545L62.7102 56.5449C61.2769 56.5449 60.601 54.8234 61.703 53.9069C61.984 53.6732 62.3411 53.5458 62.7066 53.5457L99.0013 53.5453C99.5538 53.5453 100.002 53.0975 100.002 52.545C100.001 51.9927 99.5537 51.545 99.0014 51.545L69.7239 51.5446C68.1518 51.5446 67.539 49.5986 68.8816 48.7806C69.1327 48.6277 69.4248 48.5463 69.7188 48.5463L99.0014 48.5454Z" fill="url(#paint0_radial_18_1866)"/>
<path d="M95.2783 134.544C95.4054 134.544 95.5275 134.596 95.6177 134.685C95.929 134.994 95.7155 135.545 95.277 135.545L52.038 135.545C51.8766 135.545 51.725 135.468 51.6299 135.338C51.3883 135.006 51.6266 134.545 52.0369 134.545L95.2783 134.544Z" fill="url(#paint1_radial_18_1866)"/>
<path d="M91.1898 129.545C91.5443 129.545 91.8686 129.74 92.0459 130.047C92.1726 130.266 92.0166 130.544 91.763 130.544L49.1108 130.545C48.7211 130.545 48.359 130.34 48.1641 130.002C48.0465 129.799 48.1947 129.545 48.4298 129.545L91.1898 129.545Z" fill="url(#paint2_radial_18_1866)"/>
<path d="M89.4135 124.544C89.636 124.544 89.8296 124.694 89.889 124.909C89.9769 125.225 89.7423 125.545 89.4134 125.545L46.1524 125.545C45.9567 125.545 45.7783 125.432 45.6953 125.254C45.5396 124.922 45.7833 124.545 46.1501 124.545L89.4135 124.544Z" fill="url(#paint3_radial_18_1866)"/>
<path d="M88.6204 119.545C88.8861 119.545 89.1026 119.757 89.1143 120.023C89.1268 120.305 88.9035 120.545 88.6205 120.545L63.6803 120.545C63.4335 120.545 63.2224 120.367 63.1839 120.123C63.1356 119.818 63.3729 119.545 63.6817 119.545L88.6204 119.545Z" fill="url(#paint4_radial_18_1866)"/>
<path d="M88.7591 114.045C89.2254 114.045 89.5695 114.48 89.4818 114.938C89.415 115.287 89.1133 115.545 88.7579 115.545L63.4123 115.545C63.0077 115.545 62.6729 115.229 62.6569 114.824C62.64 114.397 62.9848 114.045 63.4127 114.045L88.7591 114.045Z" fill="url(#paint5_radial_18_1866)"/>
<path d="M89.9491 109.045C90.6557 109.045 91.1172 109.794 90.8423 110.445C90.6903 110.805 90.3418 111.045 89.9512 111.045L63.7319 111.045C63.1494 111.045 62.6838 110.559 62.7243 109.978C62.7613 109.449 63.2046 109.045 63.7343 109.045L89.9491 109.045Z" fill="url(#paint6_radial_18_1866)"/>
<path d="M92.8579 104.045C93.6656 104.045 94.1018 105.027 93.612 105.669C93.4329 105.904 93.1576 106.044 92.8623 106.044L64.3613 106.045C63.7329 106.045 63.2524 105.484 63.3665 104.866C63.4549 104.387 63.8754 104.045 64.362 104.045L92.8579 104.045Z" fill="url(#paint7_radial_18_1866)"/>
<path d="M58.1707 119.545C58.3619 119.545 58.5355 119.655 58.6182 119.827C58.7769 120.158 58.5382 120.545 58.1712 120.545L44.0952 120.545C43.8833 120.545 43.6936 120.412 43.6219 120.213C43.5044 119.886 43.7478 119.545 44.0946 119.545L58.1707 119.545Z" fill="url(#paint8_radial_18_1866)"/>
<path d="M55.7783 114.045C56.0978 114.045 56.38 114.251 56.4808 114.554C56.6414 115.038 56.2854 115.545 55.7757 115.545L42.7417 115.544C42.3979 115.544 42.0963 115.313 42.01 114.98C41.8866 114.504 42.249 114.045 42.7409 114.045L55.7783 114.045Z" fill="url(#paint9_radial_18_1866)"/>
<path d="M54.2089 109.045C54.6747 109.045 55.0744 109.373 55.1746 109.828C55.3112 110.448 54.8457 111.045 54.2106 111.045L41.978 111.045C41.4882 111.045 41.0669 110.696 40.984 110.213C40.8784 109.599 41.356 109.045 41.9789 109.045L54.2089 109.045Z" fill="url(#paint10_radial_18_1866)"/>
<path d="M53.3988 104.045C53.9059 104.045 54.3277 104.432 54.3819 104.936C54.4451 105.524 53.9901 106.045 53.399 106.045L41.3352 106.045C40.8131 106.045 40.375 105.649 40.3311 105.129C40.2816 104.543 40.748 104.046 41.3361 104.046L53.3988 104.045Z" fill="url(#paint11_radial_18_1866)"/>
<path d="M53.1292 99.0451C53.6779 99.0451 54.1184 99.4957 54.1188 100.044C54.1193 100.593 53.679 101.045 53.1302 101.045L41.1242 101.045C40.5692 101.045 40.1158 100.6 40.1162 100.045C40.1166 99.4896 40.57 99.0452 41.1249 99.0452L53.1292 99.0451Z" fill="url(#paint12_radial_18_1866)"/>
<path d="M53.3988 94.0452C53.9896 94.0452 54.4447 94.5646 54.3816 95.1521C54.3275 95.6564 53.9055 96.0447 53.3982 96.0447L41.3376 96.0442C40.7495 96.0442 40.2834 95.5462 40.3333 94.9602C40.3776 94.4401 40.8156 94.0451 41.3376 94.0451L53.3988 94.0452Z" fill="url(#paint13_radial_18_1866)"/>
<path d="M54.2039 89.0446C54.8382 89.0446 55.3045 89.6392 55.1705 90.2592C55.0719 90.7151 54.6716 91.0449 54.2052 91.0448L41.98 91.0447C41.3574 91.0447 40.8803 90.4902 40.9854 89.8766C41.0681 89.3936 41.4893 89.0447 41.9793 89.0447L54.2039 89.0446Z" fill="url(#paint14_radial_18_1866)"/>
<path d="M55.5807 84.0442C56.2606 84.0442 56.7328 84.7218 56.5163 85.3663C56.3808 85.7696 56.0054 86.0451 55.58 86.0451L43.0621 86.0444C42.4042 86.0444 41.9192 85.4295 42.0863 84.7933C42.2026 84.3505 42.6049 84.045 43.0628 84.045L55.5807 84.0442Z" fill="url(#paint15_radial_18_1866)"/>
<path d="M57.5826 79.0448C58.31 79.0448 58.7827 79.815 58.4747 80.474C58.3126 80.8208 57.9663 81.0451 57.5835 81.0451L44.6117 81.045C43.9165 81.045 43.4256 80.3642 43.6605 79.7099C43.8043 79.3092 44.186 79.0448 44.6116 79.0448L57.5826 79.0448Z" fill="url(#paint16_radial_18_1866)"/>
<path d="M60.1724 73.545C61.1461 73.545 61.7221 74.6475 61.2029 75.4713C60.9791 75.8264 60.5914 76.0449 60.1717 76.0449L47.0675 76.0452C46.1444 76.0452 45.5252 75.0999 45.9202 74.2656C46.1295 73.8234 46.5774 73.545 47.0666 73.545L60.1724 73.545Z" fill="url(#paint17_radial_18_1866)"/>
<path d="M63.2816 68.5452C64.5212 68.5452 65.181 70.0467 64.3999 71.0093C64.1263 71.3465 63.7186 71.5447 63.2844 71.5447L49.8882 71.5447C48.7154 71.5447 47.9713 70.2962 48.5706 69.288C48.846 68.8247 49.3481 68.5448 49.8871 68.5448L63.2816 68.5452Z" fill="url(#paint18_radial_18_1866)"/>
<path d="M67.9885 63.5455C69.3123 63.5456 69.918 65.2767 68.9437 66.1729C68.6837 66.412 68.3471 66.5451 67.9938 66.5451L53.2247 66.5449C51.9784 66.5449 51.2447 65.1611 51.9887 64.1612C52.2785 63.7716 52.7382 63.5448 53.2238 63.5449L67.9885 63.5455Z" fill="url(#paint19_radial_18_1866)"/>
<path d="M76.7231 58.5451C77.5655 58.5451 77.8551 59.7439 77.1256 60.1651C77.1038 60.1777 77.0821 60.1903 77.0603 60.2029C75.6192 61.0383 74.0014 61.5445 72.3357 61.5445L57.4025 61.5446C56.0714 61.5446 55.3591 60.006 56.2683 59.0338C56.5609 58.7209 56.9729 58.545 57.4013 58.545L76.7231 58.5451Z" fill="url(#paint20_radial_18_1866)"/>
<defs>
<radialGradient id="paint0_radial_18_1866" cx="0" cy="0" r="1" gradientTransform="matrix(-47.4169 114.609 -114.624 -47.4053 120.6 58.7291)" gradientUnits="userSpaceOnUse">
<stop stop-color="white"/>
<stop offset="1" stop-color="white" stop-opacity="0.6"/>
</radialGradient>
<radialGradient id="paint1_radial_18_1866" cx="0" cy="0" r="1" gradientTransform="matrix(-47.4169 114.609 -114.624 -47.4053 120.6 58.7291)" gradientUnits="userSpaceOnUse">
<stop stop-color="white"/>
<stop offset="1" stop-color="white" stop-opacity="0.6"/>
</radialGradient>
<radialGradient id="paint2_radial_18_1866" cx="0" cy="0" r="1" gradientTransform="matrix(-47.4169 114.609 -114.624 -47.4053 120.6 58.7291)" gradientUnits="userSpaceOnUse">
<stop stop-color="white"/>
<stop offset="1" stop-color="white" stop-opacity="0.6"/>
</radialGradient>
<radialGradient id="paint3_radial_18_1866" cx="0" cy="0" r="1" gradientTransform="matrix(-47.4169 114.609 -114.624 -47.4053 120.6 58.7291)" gradientUnits="userSpaceOnUse">
<stop stop-color="white"/>
<stop offset="1" stop-color="white" stop-opacity="0.6"/>
</radialGradient>
<radialGradient id="paint4_radial_18_1866" cx="0" cy="0" r="1" gradientTransform="matrix(-47.4169 114.609 -114.624 -47.4053 120.6 58.7291)" gradientUnits="userSpaceOnUse">
<stop stop-color="white"/>
<stop offset="1" stop-color="white" stop-opacity="0.6"/>
</radialGradient>
<radialGradient id="paint5_radial_18_1866" cx="0" cy="0" r="1" gradientTransform="matrix(-47.4169 114.609 -114.624 -47.4053 120.6 58.7291)" gradientUnits="userSpaceOnUse">
<stop stop-color="white"/>
<stop offset="1" stop-color="white" stop-opacity="0.6"/>
</radialGradient>
<radialGradient id="paint6_radial_18_1866" cx="0" cy="0" r="1" gradientTransform="matrix(-47.4169 114.609 -114.624 -47.4053 120.6 58.7291)" gradientUnits="userSpaceOnUse">
<stop stop-color="white"/>
<stop offset="1" stop-color="white" stop-opacity="0.6"/>
</radialGradient>
<radialGradient id="paint7_radial_18_1866" cx="0" cy="0" r="1" gradientTransform="matrix(-47.4169 114.609 -114.624 -47.4053 120.6 58.7291)" gradientUnits="userSpaceOnUse">
<stop stop-color="white"/>
<stop offset="1" stop-color="white" stop-opacity="0.6"/>
</radialGradient>
<radialGradient id="paint8_radial_18_1866" cx="0" cy="0" r="1" gradientTransform="matrix(-47.4169 114.609 -114.624 -47.4053 120.6 58.7291)" gradientUnits="userSpaceOnUse">
<stop stop-color="white"/>
<stop offset="1" stop-color="white" stop-opacity="0.6"/>
</radialGradient>
<radialGradient id="paint9_radial_18_1866" cx="0" cy="0" r="1" gradientTransform="matrix(-47.4169 114.609 -114.624 -47.4053 120.6 58.7291)" gradientUnits="userSpaceOnUse">
<stop stop-color="white"/>
<stop offset="1" stop-color="white" stop-opacity="0.6"/>
</radialGradient>
<radialGradient id="paint10_radial_18_1866" cx="0" cy="0" r="1" gradientTransform="matrix(-47.4169 114.609 -114.624 -47.4053 120.6 58.7291)" gradientUnits="userSpaceOnUse">
<stop stop-color="white"/>
<stop offset="1" stop-color="white" stop-opacity="0.6"/>
</radialGradient>
<radialGradient id="paint11_radial_18_1866" cx="0" cy="0" r="1" gradientTransform="matrix(-47.4169 114.609 -114.624 -47.4053 120.6 58.7291)" gradientUnits="userSpaceOnUse">
<stop stop-color="white"/>
<stop offset="1" stop-color="white" stop-opacity="0.6"/>
</radialGradient>
<radialGradient id="paint12_radial_18_1866" cx="0" cy="0" r="1" gradientTransform="matrix(-47.4169 114.609 -114.624 -47.4053 120.6 58.7291)" gradientUnits="userSpaceOnUse">
<stop stop-color="white"/>
<stop offset="1" stop-color="white" stop-opacity="0.6"/>
</radialGradient>
<radialGradient id="paint13_radial_18_1866" cx="0" cy="0" r="1" gradientTransform="matrix(-47.4169 114.609 -114.624 -47.4053 120.6 58.7291)" gradientUnits="userSpaceOnUse">
<stop stop-color="white"/>
<stop offset="1" stop-color="white" stop-opacity="0.6"/>
</radialGradient>
<radialGradient id="paint14_radial_18_1866" cx="0" cy="0" r="1" gradientTransform="matrix(-47.4169 114.609 -114.624 -47.4053 120.6 58.7291)" gradientUnits="userSpaceOnUse">
<stop stop-color="white"/>
<stop offset="1" stop-color="white" stop-opacity="0.6"/>
</radialGradient>
<radialGradient id="paint15_radial_18_1866" cx="0" cy="0" r="1" gradientTransform="matrix(-47.4169 114.609 -114.624 -47.4053 120.6 58.7291)" gradientUnits="userSpaceOnUse">
<stop stop-color="white"/>
<stop offset="1" stop-color="white" stop-opacity="0.6"/>
</radialGradient>
<radialGradient id="paint16_radial_18_1866" cx="0" cy="0" r="1" gradientTransform="matrix(-47.4169 114.609 -114.624 -47.4053 120.6 58.7291)" gradientUnits="userSpaceOnUse">
<stop stop-color="white"/>
<stop offset="1" stop-color="white" stop-opacity="0.6"/>
</radialGradient>
<radialGradient id="paint17_radial_18_1866" cx="0" cy="0" r="1" gradientTransform="matrix(-47.4169 114.609 -114.624 -47.4053 120.6 58.7291)" gradientUnits="userSpaceOnUse">
<stop stop-color="white"/>
<stop offset="1" stop-color="white" stop-opacity="0.6"/>
</radialGradient>
<radialGradient id="paint18_radial_18_1866" cx="0" cy="0" r="1" gradientTransform="matrix(-47.4169 114.609 -114.624 -47.4053 120.6 58.7291)" gradientUnits="userSpaceOnUse">
<stop stop-color="white"/>
<stop offset="1" stop-color="white" stop-opacity="0.6"/>
</radialGradient>
<radialGradient id="paint19_radial_18_1866" cx="0" cy="0" r="1" gradientTransform="matrix(-47.4169 114.609 -114.624 -47.4053 120.6 58.7291)" gradientUnits="userSpaceOnUse">
<stop stop-color="white"/>
<stop offset="1" stop-color="white" stop-opacity="0.6"/>
</radialGradient>
<radialGradient id="paint20_radial_18_1866" cx="0" cy="0" r="1" gradientTransform="matrix(-47.4169 114.609 -114.624 -47.4053 120.6 58.7291)" gradientUnits="userSpaceOnUse">
<stop stop-color="white"/>
<stop offset="1" stop-color="white" stop-opacity="0.6"/>
</radialGradient>
</defs>
</svg>
